<mxfile host="app.diagrams.net" agent="Mozilla/5.0 (Windows NT 10.0; Win64; x64) AppleWebKit/537.36 (KHTML, like Gecko) Chrome/133.0.0.0 Safari/537.36" version="26.0.14">
  <diagram name="FE-PV" id="JewCq7Q9BEYJlGc0uWjl">
    <mxGraphModel grid="1" page="1" gridSize="10" guides="1" tooltips="1" connect="1" arrows="1" fold="1" pageScale="1" pageWidth="3300" pageHeight="4681" math="0" shadow="0">
      <root>
        <mxCell id="2cmdSwX8Fqj_RDvTQIaS-0" />
        <mxCell id="2cmdSwX8Fqj_RDvTQIaS-1" parent="2cmdSwX8Fqj_RDvTQIaS-0" />
        <mxCell id="FN_kopKCpnc_J7Al5QHP-220" value="Assess solar potential for PV installation - &lt;a style=&quot;font-size: 11px;&quot; href=&quot;https://docs.google.com/document/d/17AJEKZw4RBO2aQTBiLZaIjXHWimf1JUN/edit?amp;ouid=100401313820260785715&amp;amp;amp;rtpof=true&amp;amp;amp;sd=true#heading=h.gjdgxs&quot;&gt;FE-PV&lt;/a&gt;" style="swimlane;html=1;childLayout=stackLayout;resizeParent=1;resizeParentMax=0;horizontal=0;startSize=20;horizontalStack=0;whiteSpace=wrap;fontSize=11;fillColor=#FF0000;strokeColor=#b85450;" vertex="1" parent="2cmdSwX8Fqj_RDvTQIaS-1">
          <mxGeometry x="110" y="-4620" width="2500" height="2820" as="geometry">
            <mxRectangle x="99" y="-2240" width="40" height="50" as="alternateBounds" />
          </mxGeometry>
        </mxCell>
        <object label="&amp;nbsp;Identify the irradiation value on the city surface (per pixel)" id="FN_kopKCpnc_J7Al5QHP-221">
          <mxCell style="swimlane;html=1;startSize=58;horizontal=0;" vertex="1" parent="FN_kopKCpnc_J7Al5QHP-220">
            <mxGeometry x="20" width="2480" height="930" as="geometry">
              <mxRectangle x="20" width="1133" height="30" as="alternateBounds" />
            </mxGeometry>
          </mxCell>
        </object>
        <mxCell id="FN_kopKCpnc_J7Al5QHP-222" style="edgeStyle=orthogonalEdgeStyle;rounded=0;orthogonalLoop=1;jettySize=auto;html=1;" edge="1" parent="FN_kopKCpnc_J7Al5QHP-221" source="FN_kopKCpnc_J7Al5QHP-223">
          <mxGeometry relative="1" as="geometry">
            <mxPoint x="145" y="226" as="targetPoint" />
          </mxGeometry>
        </mxCell>
        <mxCell id="FN_kopKCpnc_J7Al5QHP-223" value="" style="points=[[0.145,0.145,0],[0.5,0,0],[0.855,0.145,0],[1,0.5,0],[0.855,0.855,0],[0.5,1,0],[0.145,0.855,0],[0,0.5,0]];shape=mxgraph.bpmn.event;html=1;verticalLabelPosition=bottom;labelBackgroundColor=#ffffff;verticalAlign=top;align=center;perimeter=ellipsePerimeter;outlineConnect=0;aspect=fixed;outline=standard;symbol=general;" vertex="1" parent="FN_kopKCpnc_J7Al5QHP-221">
          <mxGeometry x="85" y="211" width="30" height="30" as="geometry" />
        </mxCell>
        <mxCell id="FN_kopKCpnc_J7Al5QHP-224" value="&lt;div style=&quot;line-height: 70%;&quot;&gt;&lt;div&gt;&lt;font face=&quot;Arial&quot;&gt;&lt;span style=&quot;font-size: 8px;&quot;&gt;Calculate the irradiation values on the surfaces (from a nadir point of view) in the city [and calculate the received irradiation per year]&lt;/span&gt;&lt;/font&gt;&lt;/div&gt;&lt;div style=&quot;line-height: 70%;&quot;&gt;&lt;font face=&quot;Arial&quot;&gt;&lt;span style=&quot;font-size: 8px;&quot;&gt;&lt;a href=&quot;https://usage.geocat.live/catalogue/srv/eng/catalog.search#/metadata/85709f88-be74-46a8-977a-f15818d18739&quot;&gt;&lt;b&gt;PV-potential&lt;/b&gt;&lt;/a&gt;&lt;/span&gt;&lt;/font&gt;&lt;/div&gt;&lt;/div&gt;" style="points=[[0.25,0,0],[0.5,0,0],[0.75,0,0],[1,0.25,0],[1,0.5,0],[1,0.75,0],[0.75,1,0],[0.5,1,0],[0.25,1,0],[0,0.75,0],[0,0.5,0],[0,0.25,0]];shape=mxgraph.bpmn.task;whiteSpace=wrap;rectStyle=rounded;size=10;html=1;container=1;expand=0;collapsible=0;taskMarker=abstract;fillColor=#ff9b29;strokeColor=#d79b00;gradientColor=none;" vertex="1" parent="FN_kopKCpnc_J7Al5QHP-221">
          <mxGeometry x="213" y="115.5" width="169" height="47.5" as="geometry" />
        </mxCell>
        <UserObject label="&lt;div style=&quot;line-height: 100%; font-size: 8px;&quot;&gt;&lt;div style=&quot;line-height: 100%;&quot;&gt;Linke-turbidity factor map&amp;nbsp;&lt;/div&gt;&lt;div style=&quot;line-height: 100%;&quot;&gt;&lt;span style=&quot;background-color: initial;&quot;&gt;&amp;nbsp;&lt;/span&gt;&lt;a href=&quot;https://www.soda-pro.com/help/general-knowledge/linke-turbidity-factor?p_l_back_url=https%3A%2F%2Fwww.soda-pro.com%2Fhome%3Fp_p_id%3Dcom_liferay_portal_search_web_portlet_SearchPortlet%26p_p_lifecycle%3D0%26p_p_state%3Dmaximized%26p_p_mode%3Dview%26_com_liferay_portal_search_web_portlet_SearchPortlet_redirect%3Dhttps%253A%252F%252Fwww.soda-pro.com%252Fhome%253Fp_p_id%253Dcom_liferay_portal_search_web_portlet_SearchPortlet%2526p_p_lifecycle%253D0%2526p_p_state%253Dnormal%2526p_p_mode%253Dview%26_com_liferay_portal_search_web_portlet_SearchPortlet_mvcPath%3D%252Fsearch.jsp%26_com_liferay_portal_search_web_portlet_SearchPortlet_keywords%3Dlinke%26_com_liferay_portal_search_web_portlet_SearchPortlet_formDate%3D1697446902332%26_com_liferay_portal_search_web_portlet_SearchPortlet_scope%3Dthis-site&quot; style=&quot;background-color: initial;&quot;&gt;link to dataset metadata&lt;/a&gt;&lt;/div&gt;&lt;/div&gt;" id="FN_kopKCpnc_J7Al5QHP-225">
          <mxCell style="shape=mxgraph.bpmn.data;labelPosition=center;verticalLabelPosition=bottom;align=center;verticalAlign=top;size=15;html=1;movable=1;resizable=1;rotatable=1;deletable=1;editable=1;locked=0;connectable=1;" vertex="1" parent="FN_kopKCpnc_J7Al5QHP-221">
            <mxGeometry x="225" y="33" width="30" height="30" as="geometry" />
          </mxCell>
        </UserObject>
        <UserObject label="&lt;div style=&quot;line-height: 100%; font-size: 8px;&quot;&gt;&lt;div style=&quot;line-height: 100%;&quot;&gt;DSM - 1m res&lt;/div&gt;&lt;div style=&quot;line-height: 100%;&quot;&gt;&amp;nbsp;(&lt;a href=&quot;https://usage.geocat.live/catalogue/srv/eng/catalog.search#/metadata/bada953d-51d0-468f-81e2-8d22d80c6df0&quot;&gt;link to dataset metadata&lt;/a&gt;)&lt;/div&gt;&lt;/div&gt;" id="FN_kopKCpnc_J7Al5QHP-226">
          <mxCell style="shape=mxgraph.bpmn.data;labelPosition=center;verticalLabelPosition=bottom;align=center;verticalAlign=top;size=15;html=1;" vertex="1" parent="FN_kopKCpnc_J7Al5QHP-221">
            <mxGeometry x="332" y="33" width="30" height="30" as="geometry" />
          </mxCell>
        </UserObject>
        <mxCell id="FN_kopKCpnc_J7Al5QHP-227" style="edgeStyle=orthogonalEdgeStyle;rounded=0;orthogonalLoop=1;jettySize=auto;html=1;entryX=0.75;entryY=0;entryDx=0;entryDy=0;entryPerimeter=0;dashed=1;" edge="1" parent="FN_kopKCpnc_J7Al5QHP-221" source="FN_kopKCpnc_J7Al5QHP-226" target="FN_kopKCpnc_J7Al5QHP-224">
          <mxGeometry relative="1" as="geometry" />
        </mxCell>
        <mxCell id="FN_kopKCpnc_J7Al5QHP-228" style="edgeStyle=orthogonalEdgeStyle;rounded=0;orthogonalLoop=1;jettySize=auto;html=1;entryX=0.25;entryY=0;entryDx=0;entryDy=0;entryPerimeter=0;dashed=1;" edge="1" parent="FN_kopKCpnc_J7Al5QHP-221" source="FN_kopKCpnc_J7Al5QHP-225" target="FN_kopKCpnc_J7Al5QHP-224">
          <mxGeometry relative="1" as="geometry" />
        </mxCell>
        <mxCell id="FN_kopKCpnc_J7Al5QHP-229" style="edgeStyle=orthogonalEdgeStyle;rounded=0;orthogonalLoop=1;jettySize=auto;html=1;entryX=0.233;entryY=0.035;entryDx=0;entryDy=0;entryPerimeter=0;dashed=1;" edge="1" parent="FN_kopKCpnc_J7Al5QHP-221" source="FN_kopKCpnc_J7Al5QHP-224" target="FN_kopKCpnc_J7Al5QHP-239">
          <mxGeometry relative="1" as="geometry">
            <mxPoint x="297" y="192" as="targetPoint" />
          </mxGeometry>
        </mxCell>
        <mxCell id="FN_kopKCpnc_J7Al5QHP-230" value="&lt;h6 style=&quot;line-height: 100%;&quot;&gt;&lt;span style=&quot;background-color: initial; font-size: 8px;&quot;&gt;&lt;font face=&quot;Arial&quot; style=&quot;&quot;&gt;Roof Segmentation&lt;br&gt;&lt;/font&gt;&lt;/span&gt;&lt;font face=&quot;Arial&quot; style=&quot;&quot;&gt;&lt;span style=&quot;font-size: 8.04px; font-weight: normal;&quot;&gt;The tool identifies, segments and classifies roofs falling within the specified Area of Interest, basing on surface aspect computed from DSM and using footprints to define roof outer limits. Segmented roof parts are labelled with respect to 4 aspect classes, corresponding to NE, SE, SW and NW.&lt;/span&gt;&lt;br&gt;&lt;/font&gt;&lt;font face=&quot;Arial&quot; style=&quot;font-size: 8px;&quot; color=&quot;#ff3333&quot;&gt;&lt;b&gt;&lt;a href=&quot;https://usage.geocat.live/catalogue/srv/eng/catalog.search#/metadata/15b32427-5162-46a0-b09c-2a3cd44efe00&quot;&gt;Link to tool metadata&lt;/a&gt;&lt;/b&gt;&lt;/font&gt;&lt;/h6&gt;" style="points=[[0.25,0,0],[0.5,0,0],[0.75,0,0],[1,0.25,0],[1,0.5,0],[1,0.75,0],[0.75,1,0],[0.5,1,0],[0.25,1,0],[0,0.75,0],[0,0.5,0],[0,0.25,0]];shape=mxgraph.bpmn.task;whiteSpace=wrap;rectStyle=rounded;size=10;html=1;container=1;expand=0;collapsible=0;taskMarker=abstract;fillColor=#ff9b29;fontColor=#000000;strokeColor=#BD7000;" vertex="1" parent="FN_kopKCpnc_J7Al5QHP-221">
          <mxGeometry x="200" y="370" width="198.5" height="68" as="geometry" />
        </mxCell>
        <mxCell id="FN_kopKCpnc_J7Al5QHP-231" value="" style="points=[[0.25,0.25,0],[0.5,0,0],[0.75,0.25,0],[1,0.5,0],[0.75,0.75,0],[0.5,1,0],[0.25,0.75,0],[0,0.5,0]];shape=mxgraph.bpmn.gateway2;html=1;verticalLabelPosition=bottom;labelBackgroundColor=#ffffff;verticalAlign=top;align=center;perimeter=rhombusPerimeter;outlineConnect=0;outline=none;symbol=none;gwType=parallel;" vertex="1" parent="FN_kopKCpnc_J7Al5QHP-221">
          <mxGeometry x="145" y="201" width="50" height="50" as="geometry" />
        </mxCell>
        <mxCell id="FN_kopKCpnc_J7Al5QHP-232" style="edgeStyle=orthogonalEdgeStyle;rounded=0;orthogonalLoop=1;jettySize=auto;html=1;entryX=0;entryY=0.5;entryDx=0;entryDy=0;entryPerimeter=0;exitX=0.5;exitY=1;exitDx=0;exitDy=0;exitPerimeter=0;" edge="1" parent="FN_kopKCpnc_J7Al5QHP-221" source="FN_kopKCpnc_J7Al5QHP-231" target="FN_kopKCpnc_J7Al5QHP-230">
          <mxGeometry relative="1" as="geometry" />
        </mxCell>
        <UserObject label="&lt;div style=&quot;font-size: 8px;&quot;&gt;&lt;div&gt;&lt;font face=&quot;Arial&quot; style=&quot;font-size: 8px;&quot;&gt;&lt;span style=&quot;&quot;&gt;Building footprints&lt;/span&gt;&lt;/font&gt;&lt;/div&gt;&lt;div&gt;&lt;font face=&quot;Arial&quot; style=&quot;font-size: 8px;&quot;&gt;&amp;nbsp;&lt;a href=&quot;https://usage.geocat.live/catalogue/srv/eng/catalog.search#/metadata/4a561dec-b977-4bb1-a5e3-6743c8e98fcd&quot;&gt;link to dataset metadata&lt;/a&gt;&lt;/font&gt;&lt;/div&gt;&lt;/div&gt;" id="FN_kopKCpnc_J7Al5QHP-233">
          <mxCell style="shape=mxgraph.bpmn.data;labelPosition=center;verticalLabelPosition=bottom;align=center;verticalAlign=top;size=15;html=1;" vertex="1" parent="FN_kopKCpnc_J7Al5QHP-221">
            <mxGeometry x="350" y="276" width="30" height="37" as="geometry" />
          </mxCell>
        </UserObject>
        <mxCell id="FN_kopKCpnc_J7Al5QHP-234" style="edgeStyle=orthogonalEdgeStyle;rounded=0;orthogonalLoop=1;jettySize=auto;html=1;entryX=0.25;entryY=0;entryDx=0;entryDy=0;entryPerimeter=0;dashed=1;exitX=0.5;exitY=1;exitDx=0;exitDy=0;exitPerimeter=0;" edge="1" parent="FN_kopKCpnc_J7Al5QHP-221" source="FN_kopKCpnc_J7Al5QHP-241" target="FN_kopKCpnc_J7Al5QHP-230">
          <mxGeometry relative="1" as="geometry">
            <mxPoint x="249.0000000000001" y="309.5" as="sourcePoint" />
          </mxGeometry>
        </mxCell>
        <mxCell id="FN_kopKCpnc_J7Al5QHP-235" style="edgeStyle=orthogonalEdgeStyle;rounded=0;orthogonalLoop=1;jettySize=auto;html=1;entryX=0.75;entryY=0;entryDx=0;entryDy=0;entryPerimeter=0;dashed=1;" edge="1" parent="FN_kopKCpnc_J7Al5QHP-221" source="FN_kopKCpnc_J7Al5QHP-233" target="FN_kopKCpnc_J7Al5QHP-230">
          <mxGeometry relative="1" as="geometry" />
        </mxCell>
        <UserObject label="&lt;div style=&quot;line-height: 100%;&quot;&gt;&lt;div style=&quot;line-height: 100%;&quot;&gt;&lt;font face=&quot;Arial&quot;&gt;&lt;span style=&quot;font-size: 8px;&quot;&gt;Segmented Roofs&lt;/span&gt;&lt;/font&gt;&lt;/div&gt;&lt;div style=&quot;font-size: 8px; line-height: 100%;&quot;&gt;&lt;font style=&quot;font-size: 8px;&quot; face=&quot;Arial&quot;&gt;&amp;nbsp;&lt;a href=&quot;https://usage.geocat.live/catalogue/srv/ita/catalog.search#/metadata/60689a02-9b52-426e-bf90-6172f76147ea&quot;&gt;link to dataset metadata&lt;/a&gt;&lt;/font&gt;&lt;/div&gt;&lt;/div&gt;" id="FN_kopKCpnc_J7Al5QHP-236">
          <mxCell style="shape=mxgraph.bpmn.data;labelPosition=center;verticalLabelPosition=bottom;align=center;verticalAlign=top;size=15;html=1;" vertex="1" parent="FN_kopKCpnc_J7Al5QHP-221">
            <mxGeometry x="290.75" y="480" width="30" height="32" as="geometry" />
          </mxCell>
        </UserObject>
        <mxCell id="FN_kopKCpnc_J7Al5QHP-237" style="edgeStyle=orthogonalEdgeStyle;rounded=0;orthogonalLoop=1;jettySize=auto;html=1;entryX=0;entryY=0;entryDx=7.5;entryDy=0;entryPerimeter=0;dashed=1;exitX=0.422;exitY=0.966;exitDx=0;exitDy=0;exitPerimeter=0;" edge="1" parent="FN_kopKCpnc_J7Al5QHP-221" source="FN_kopKCpnc_J7Al5QHP-230" target="FN_kopKCpnc_J7Al5QHP-236">
          <mxGeometry relative="1" as="geometry" />
        </mxCell>
        <mxCell id="FN_kopKCpnc_J7Al5QHP-238" style="edgeStyle=orthogonalEdgeStyle;rounded=0;orthogonalLoop=1;jettySize=auto;html=1;entryX=0;entryY=0.5;entryDx=0;entryDy=0;entryPerimeter=0;exitX=0.5;exitY=0;exitDx=0;exitDy=0;exitPerimeter=0;" edge="1" parent="FN_kopKCpnc_J7Al5QHP-221" source="FN_kopKCpnc_J7Al5QHP-231" target="FN_kopKCpnc_J7Al5QHP-224">
          <mxGeometry relative="1" as="geometry" />
        </mxCell>
        <UserObject label="&lt;div style=&quot;line-height: 70%;&quot;&gt;&lt;div style=&quot;line-height: 70%;&quot;&gt;&lt;span style=&quot;background-color: initial; font-size: 8px;&quot;&gt;&lt;font face=&quot;Arial&quot;&gt;&lt;b style=&quot;&quot;&gt;Total solar radiation Ferrara&lt;/b&gt;&lt;/font&gt;&lt;/span&gt;&lt;span style=&quot;font-size: 8px; font-family: Arial; background-color: initial;&quot;&gt;&amp;nbsp;&lt;/span&gt;&lt;/div&gt;&lt;div style=&quot;&quot;&gt;&lt;a href=&quot;https://usage.geocat.live/catalogue/srv/ita/catalog.search#/metadata/601806dd-3e61-40b4-8d47-6fec2e9addbe&quot; style=&quot;font-size: 8px; font-family: Arial; background-color: initial;&quot;&gt;&lt;font color=&quot;#000000&quot;&gt;l&lt;/font&gt;ink to dataset metadata&lt;/a&gt;&amp;nbsp;&lt;br&gt;&lt;/div&gt;&lt;/div&gt;" id="FN_kopKCpnc_J7Al5QHP-239">
          <mxCell style="shape=mxgraph.bpmn.data;labelPosition=center;verticalLabelPosition=bottom;align=center;verticalAlign=top;size=15;html=1;fillColor=#FFFFFF;strokeColor=#9673a6;" vertex="1" parent="FN_kopKCpnc_J7Al5QHP-221">
            <mxGeometry x="290.5" y="189" width="30" height="34" as="geometry" />
          </mxCell>
        </UserObject>
        <mxCell id="FN_kopKCpnc_J7Al5QHP-240" style="edgeStyle=orthogonalEdgeStyle;rounded=0;orthogonalLoop=1;jettySize=auto;html=1;exitX=0.5;exitY=0;exitDx=0;exitDy=0;" edge="1" parent="FN_kopKCpnc_J7Al5QHP-221">
          <mxGeometry relative="1" as="geometry">
            <mxPoint x="489.7931034482758" y="362.8965517241377" as="targetPoint" />
            <mxPoint x="490" y="363" as="sourcePoint" />
          </mxGeometry>
        </mxCell>
        <UserObject label="&lt;div style=&quot;line-height: 100%; font-size: 8px;&quot;&gt;&lt;div style=&quot;line-height: 100%;&quot;&gt;DSM - 1m res&lt;/div&gt;&lt;div style=&quot;line-height: 100%;&quot;&gt;&amp;nbsp;(&lt;a href=&quot;https://usage.geocat.live/catalogue/srv/eng/catalog.search#/metadata/bada953d-51d0-468f-81e2-8d22d80c6df0&quot;&gt;link to dataset metadata&lt;/a&gt;)&lt;/div&gt;&lt;/div&gt;" id="FN_kopKCpnc_J7Al5QHP-241">
          <mxCell style="shape=mxgraph.bpmn.data;labelPosition=center;verticalLabelPosition=bottom;align=center;verticalAlign=top;size=15;html=1;" vertex="1" parent="FN_kopKCpnc_J7Al5QHP-221">
            <mxGeometry x="213" y="283" width="30" height="30" as="geometry" />
          </mxCell>
        </UserObject>
        <mxCell id="FN_kopKCpnc_J7Al5QHP-242" value="&lt;p&gt;Identify the average irradiation value per homogeneous areas on roof pitches or areas potentially usable for photovoltaic panels installations (unoccupied areas (parkings, stocking areas, plane roofs, etc.)&lt;/p&gt;" style="swimlane;html=1;startSize=58;horizontal=0;whiteSpace=wrap;" vertex="1" parent="FN_kopKCpnc_J7Al5QHP-221">
          <mxGeometry x="70" y="560" width="2410" height="370" as="geometry" />
        </mxCell>
        <mxCell id="FN_kopKCpnc_J7Al5QHP-243" value="&lt;h6 style=&quot;line-height: 90%;&quot;&gt;&lt;br&gt;&lt;div style=&quot;text-align: center;&quot;&gt;&lt;span style=&quot;background-color: transparent; color: light-dark(rgb(0, 0, 0), rgb(237, 237, 237));&quot;&gt;&lt;font style=&quot;font-size: 9px;&quot;&gt;PV Irradiation&lt;/font&gt;&lt;/span&gt;&lt;/div&gt;&lt;/h6&gt;&lt;h6 style=&quot;line-height: 90%;&quot;&gt;&lt;span style=&quot;font-weight: normal; font-size: 8px; background-color: transparent; color: light-dark(rgb(0, 0, 0), rgb(255, 255, 255)); line-height: 150%;&quot;&gt;Median irradiation values per roof part and parking areas&lt;/span&gt;&lt;/h6&gt;&lt;h6 style=&quot;text-align: center; line-height: 90%;&quot;&gt;&lt;font style=&quot;background-color: initial; color: light-dark(rgb(0, 0, 0), rgb(237, 237, 237)); font-size: 8px; font-weight: normal;&quot;&gt;&amp;nbsp;&lt;/font&gt;&lt;font style=&quot;background-color: initial; font-size: 6px; font-weight: normal;&quot;&gt;&lt;a href=&quot;https://usage.geocat.live/catalogue/srv/eng/catalog.search#/metadata/91874db4-7086-4198-926c-d9e99a5f3024&quot;&gt;&lt;font style=&quot;font-size: 10px;&quot;&gt;Link to tool metadata&lt;/font&gt;&lt;/a&gt;&lt;span style=&quot;font-size: 12px;&quot;&gt;&amp;nbsp;&lt;/span&gt;&lt;/font&gt;&lt;/h6&gt;&lt;p&gt;&lt;/p&gt;" style="points=[[0.25,0,0],[0.5,0,0],[0.75,0,0],[1,0.25,0],[1,0.5,0],[1,0.75,0],[0.75,1,0],[0.5,1,0],[0.25,1,0],[0,0.75,0],[0,0.5,0],[0,0.25,0]];shape=mxgraph.bpmn.task;whiteSpace=wrap;rectStyle=rounded;size=10;html=1;container=1;expand=0;collapsible=0;taskMarker=abstract;fillColor=#f0a30a;rounded=0;align=left;verticalAlign=middle;spacing=2;fontFamily=Helvetica;fontSize=6;labelBackgroundColor=none;strokeColor=#BD7000;fontColor=#000000;" vertex="1" parent="FN_kopKCpnc_J7Al5QHP-242">
          <mxGeometry x="448" y="140" width="202" height="60" as="geometry" />
        </mxCell>
        <mxCell id="FN_kopKCpnc_J7Al5QHP-246" style="edgeStyle=orthogonalEdgeStyle;rounded=0;orthogonalLoop=1;jettySize=auto;html=1;entryX=0;entryY=0;entryDx=7.5;entryDy=0;entryPerimeter=0;dashed=1;" edge="1" parent="FN_kopKCpnc_J7Al5QHP-242" source="FN_kopKCpnc_J7Al5QHP-243" target="FN_kopKCpnc_J7Al5QHP-250">
          <mxGeometry relative="1" as="geometry">
            <mxPoint x="568.0000000000002" y="248" as="targetPoint" />
          </mxGeometry>
        </mxCell>
        <UserObject label="&lt;div style=&quot;font-size: 8px;&quot;&gt;&lt;div&gt;&lt;span style=&quot;font-family: Arial;&quot;&gt;Parking&amp;nbsp;&lt;/span&gt;&lt;/div&gt;&lt;div&gt;&lt;span style=&quot;font-family: Arial;&quot;&gt;lot vector&amp;nbsp;&lt;/span&gt;&lt;br&gt;&lt;/div&gt;&lt;div&gt;&lt;a style=&quot;background-color: initial; font-family: Arial;&quot; href=&quot;https://usage.geocat.live/catalogue/srv/ita/catalog.search#/metadata/a482dbaa-ba7e-43d5-ad4d-5a9638b40637&quot;&gt;link to dataset metadata&lt;/a&gt;&lt;/div&gt;&lt;/div&gt;" id="FN_kopKCpnc_J7Al5QHP-248">
          <mxCell style="shape=mxgraph.bpmn.data;labelPosition=center;verticalLabelPosition=bottom;align=center;verticalAlign=top;size=15;html=1;" vertex="1" parent="FN_kopKCpnc_J7Al5QHP-242">
            <mxGeometry x="604" y="40" width="30" height="34" as="geometry" />
          </mxCell>
        </UserObject>
        <mxCell id="FN_kopKCpnc_J7Al5QHP-249" value="&lt;div style=&quot;&quot;&gt;&lt;h6 style=&quot;&quot;&gt;&lt;span style=&quot;font-weight: normal; font-size: 6px;&quot;&gt;Vectorial layer containing the roof pitches and other potential candidate areas in the city(possibly split in multiple sub-areas having homogeneous irradiation values) with associated received irradiation (KWh) per year, per m2? In semantics: plane surfaces should be marked somehow&lt;/span&gt;&lt;/h6&gt;&lt;/div&gt;" style="text;html=1;strokeColor=none;fillColor=#d5e8d4;align=center;verticalAlign=middle;rounded=0;whiteSpace=wrap;spacing=2;fontSize=6;labelBackgroundColor=none;" vertex="1" parent="FN_kopKCpnc_J7Al5QHP-242">
          <mxGeometry x="507" y="320" width="127" height="49" as="geometry" />
        </mxCell>
        <UserObject label="&lt;div style=&quot;font-size: 8px;&quot;&gt;&lt;div&gt;&lt;span style=&quot;background-color: rgb(255, 255, 255); text-align: left; white-space: pre-wrap;&quot;&gt;&lt;font style=&quot;font-size: 8px;&quot; face=&quot;Helvetica&quot;&gt;Roof Pitches Irradiation &lt;/font&gt;&lt;/span&gt;&lt;/div&gt;&lt;div&gt;&lt;font style=&quot;font-size: 8px;&quot; face=&quot;dMdXWaJS4YXUSSMsWkbs&quot;&gt;&lt;a style=&quot;&quot; href=&quot;https://usage.geocat.live/catalogue/srv/eng/catalog.search#/metadata/2087f4e7-b631-4547-a5b6-17cb2dcf4d56&quot;&gt;link to dataset metadata&lt;/a&gt;&lt;/font&gt;&lt;/div&gt;&lt;/div&gt;" id="FN_kopKCpnc_J7Al5QHP-250">
          <mxCell style="shape=mxgraph.bpmn.data;labelPosition=center;verticalLabelPosition=bottom;align=center;verticalAlign=top;size=15;html=1;" vertex="1" parent="FN_kopKCpnc_J7Al5QHP-242">
            <mxGeometry x="460" y="242.5" width="30" height="34" as="geometry" />
          </mxCell>
        </UserObject>
        <mxCell id="FN_kopKCpnc_J7Al5QHP-251" style="edgeStyle=orthogonalEdgeStyle;rounded=0;orthogonalLoop=1;jettySize=auto;html=1;entryX=0.711;entryY=0;entryDx=0;entryDy=0;entryPerimeter=0;dashed=1;" edge="1" parent="FN_kopKCpnc_J7Al5QHP-242" source="FN_kopKCpnc_J7Al5QHP-248" target="FN_kopKCpnc_J7Al5QHP-243">
          <mxGeometry relative="1" as="geometry">
            <Array as="points">
              <mxPoint x="619" y="120" />
              <mxPoint x="592" y="120" />
            </Array>
          </mxGeometry>
        </mxCell>
        <mxCell id="JMWJeEyeLRWqXtVu5Jgj-1" value="&lt;div style=&quot;&quot;&gt;&lt;span style=&quot;font-size: 10px;&quot;&gt;TO FIX METADATA&lt;/span&gt;&lt;/div&gt;" style="text;html=1;strokeColor=none;fillColor=#FF0000;align=left;verticalAlign=middle;rounded=0;whiteSpace=wrap;spacing=2;fontSize=6;labelBackgroundColor=none;" vertex="1" parent="FN_kopKCpnc_J7Al5QHP-242">
          <mxGeometry x="689" y="15" width="80" height="59" as="geometry" />
        </mxCell>
        <mxCell id="JMWJeEyeLRWqXtVu5Jgj-4" value="&lt;div style=&quot;&quot;&gt;&lt;span style=&quot;font-size: 10px;&quot;&gt;2 layer output:&lt;/span&gt;&lt;/div&gt;&lt;div style=&quot;&quot;&gt;&lt;span style=&quot;font-size: 10px;&quot;&gt;roof pithces&lt;/span&gt;&lt;/div&gt;&lt;div style=&quot;&quot;&gt;&lt;span style=&quot;font-size: 10px;&quot;&gt;parking lot&lt;/span&gt;&lt;/div&gt;" style="text;html=1;strokeColor=none;fillColor=#FF0000;align=left;verticalAlign=middle;rounded=0;whiteSpace=wrap;spacing=2;fontSize=6;labelBackgroundColor=none;" vertex="1" parent="FN_kopKCpnc_J7Al5QHP-242">
          <mxGeometry x="270" y="230" width="80" height="59" as="geometry" />
        </mxCell>
        <mxCell id="JMWJeEyeLRWqXtVu5Jgj-5" value="" style="endArrow=none;html=1;rounded=0;entryX=0;entryY=1;entryDx=0;entryDy=0;exitX=0;exitY=0;exitDx=30;exitDy=15;exitPerimeter=0;" edge="1" parent="FN_kopKCpnc_J7Al5QHP-242" source="FN_kopKCpnc_J7Al5QHP-248" target="JMWJeEyeLRWqXtVu5Jgj-1">
          <mxGeometry width="50" height="50" relative="1" as="geometry">
            <mxPoint x="560" y="-50" as="sourcePoint" />
            <mxPoint x="610" y="-100" as="targetPoint" />
          </mxGeometry>
        </mxCell>
        <mxCell id="JMWJeEyeLRWqXtVu5Jgj-6" value="" style="endArrow=none;html=1;rounded=0;entryX=0;entryY=1;entryDx=0;entryDy=0;entryPerimeter=0;exitX=1;exitY=0.25;exitDx=0;exitDy=0;" edge="1" parent="FN_kopKCpnc_J7Al5QHP-242" source="JMWJeEyeLRWqXtVu5Jgj-4" target="FN_kopKCpnc_J7Al5QHP-250">
          <mxGeometry width="50" height="50" relative="1" as="geometry">
            <mxPoint x="630" y="270" as="sourcePoint" />
            <mxPoint x="680" y="220" as="targetPoint" />
          </mxGeometry>
        </mxCell>
        <mxCell id="QnSOdd-HAcT2mWiMDpwe-12" value="&lt;div style=&quot;&quot;&gt;&lt;span style=&quot;font-size: 10px;&quot;&gt;This tool must be described with another label: PV irradiation. At the moment the tool is called by DEDA PV_roof_irradiation (PV_surface_irradiation???)&lt;/span&gt;&lt;/div&gt;" style="text;html=1;strokeColor=none;fillColor=#FF0000;align=left;verticalAlign=middle;rounded=0;whiteSpace=wrap;spacing=2;fontSize=6;labelBackgroundColor=none;" vertex="1" parent="FN_kopKCpnc_J7Al5QHP-242">
          <mxGeometry x="710" y="154.5" width="390" height="50" as="geometry" />
        </mxCell>
        <mxCell id="QnSOdd-HAcT2mWiMDpwe-13" style="edgeStyle=orthogonalEdgeStyle;rounded=0;orthogonalLoop=1;jettySize=auto;html=1;exitX=0.5;exitY=1;exitDx=0;exitDy=0;" edge="1" parent="FN_kopKCpnc_J7Al5QHP-242" source="QnSOdd-HAcT2mWiMDpwe-12" target="QnSOdd-HAcT2mWiMDpwe-12">
          <mxGeometry relative="1" as="geometry" />
        </mxCell>
        <mxCell id="QnSOdd-HAcT2mWiMDpwe-16" style="edgeStyle=orthogonalEdgeStyle;rounded=0;orthogonalLoop=1;jettySize=auto;html=1;dashed=1;" edge="1" parent="FN_kopKCpnc_J7Al5QHP-242">
          <mxGeometry relative="1" as="geometry">
            <Array as="points">
              <mxPoint x="597" y="230" />
            </Array>
            <mxPoint x="597" y="199" as="sourcePoint" />
            <mxPoint x="597" y="230" as="targetPoint" />
          </mxGeometry>
        </mxCell>
        <UserObject label="&lt;div style=&quot;font-size: 8px;&quot;&gt;&lt;div&gt;&lt;span style=&quot;font-family: Arial;&quot;&gt;Parking&amp;nbsp;&lt;/span&gt;&lt;/div&gt;&lt;div&gt;&lt;span style=&quot;font-family: Arial;&quot;&gt;lot vector&amp;nbsp;&lt;/span&gt;&lt;br&gt;&lt;/div&gt;&lt;div&gt;&lt;a href=&quot;https://usage.geocat.live/catalogue/srv/ita/catalog.search#/metadata/a482dbaa-ba7e-43d5-ad4d-5a9638b40637&quot; style=&quot;background-color: initial; font-family: Arial;&quot;&gt;link to dataset metadata&lt;/a&gt;&lt;/div&gt;&lt;/div&gt;" id="QnSOdd-HAcT2mWiMDpwe-17">
          <mxCell style="shape=mxgraph.bpmn.data;labelPosition=center;verticalLabelPosition=bottom;align=center;verticalAlign=top;size=15;html=1;strokeColor=#9673a6;fontFamily=Helvetica;fontSize=12;fontColor=default;fillColor=#e1d5e7;" vertex="1" parent="FN_kopKCpnc_J7Al5QHP-242">
            <mxGeometry x="584" y="229" width="30" height="34" as="geometry" />
          </mxCell>
        </UserObject>
        <mxCell id="FN_kopKCpnc_J7Al5QHP-252" style="edgeStyle=orthogonalEdgeStyle;rounded=0;orthogonalLoop=1;jettySize=auto;html=1;entryX=0.5;entryY=0;entryDx=0;entryDy=0;entryPerimeter=0;" edge="1" parent="FN_kopKCpnc_J7Al5QHP-221" source="FN_kopKCpnc_J7Al5QHP-224" target="FN_kopKCpnc_J7Al5QHP-243">
          <mxGeometry relative="1" as="geometry" />
        </mxCell>
        <mxCell id="FN_kopKCpnc_J7Al5QHP-253" style="edgeStyle=orthogonalEdgeStyle;rounded=0;orthogonalLoop=1;jettySize=auto;html=1;entryX=0.5;entryY=0;entryDx=0;entryDy=0;entryPerimeter=0;" edge="1" parent="FN_kopKCpnc_J7Al5QHP-221" source="FN_kopKCpnc_J7Al5QHP-230" target="FN_kopKCpnc_J7Al5QHP-243">
          <mxGeometry relative="1" as="geometry">
            <mxPoint x="542" y="696" as="targetPoint" />
          </mxGeometry>
        </mxCell>
        <mxCell id="FN_kopKCpnc_J7Al5QHP-254" style="edgeStyle=orthogonalEdgeStyle;rounded=0;orthogonalLoop=1;jettySize=auto;html=1;entryX=0;entryY=0.5;entryDx=0;entryDy=0;entryPerimeter=0;dashed=1;exitX=0.5;exitY=1;exitDx=0;exitDy=0;exitPerimeter=0;" edge="1" parent="FN_kopKCpnc_J7Al5QHP-221" source="FN_kopKCpnc_J7Al5QHP-236" target="FN_kopKCpnc_J7Al5QHP-243">
          <mxGeometry relative="1" as="geometry" />
        </mxCell>
        <mxCell id="FN_kopKCpnc_J7Al5QHP-255" style="edgeStyle=orthogonalEdgeStyle;rounded=0;orthogonalLoop=1;jettySize=auto;html=1;dashed=1;" edge="1" parent="FN_kopKCpnc_J7Al5QHP-221" source="FN_kopKCpnc_J7Al5QHP-239">
          <mxGeometry relative="1" as="geometry">
            <Array as="points">
              <mxPoint x="420" y="206" />
              <mxPoint x="420" y="706" />
              <mxPoint x="520" y="706" />
            </Array>
            <mxPoint x="520" y="706" as="targetPoint" />
          </mxGeometry>
        </mxCell>
        <mxCell id="FN_kopKCpnc_J7Al5QHP-256" style="edgeStyle=orthogonalEdgeStyle;rounded=0;orthogonalLoop=1;jettySize=auto;html=1;dashed=1;exitX=0.5;exitY=1;exitDx=0;exitDy=0;exitPerimeter=0;" edge="1" parent="FN_kopKCpnc_J7Al5QHP-221" source="FN_kopKCpnc_J7Al5QHP-257" target="FN_kopKCpnc_J7Al5QHP-230">
          <mxGeometry relative="1" as="geometry">
            <Array as="points">
              <mxPoint x="505" y="350" />
              <mxPoint x="381" y="350" />
            </Array>
            <mxPoint x="480" y="300" as="sourcePoint" />
            <mxPoint x="460" y="370" as="targetPoint" />
          </mxGeometry>
        </mxCell>
        <UserObject label="&lt;div style=&quot;font-size: 8px;&quot;&gt;&lt;div style=&quot;&quot;&gt;&lt;span style=&quot;background-color: initial;&quot;&gt;&lt;font face=&quot;Arial&quot; style=&quot;font-size: 8px;&quot;&gt;Perimeter of the historic center of Ferrara&lt;/font&gt;&lt;/span&gt;&lt;/div&gt;&lt;div style=&quot;&quot;&gt;&lt;span style=&quot;font-family: Arial; background-color: initial;&quot;&gt;&amp;nbsp;&lt;/span&gt;&lt;a href=&quot;https://usage.geocat.live/catalogue/srv/ita/catalog.search#/metadata/2518f252-b150-4c40-995b-75bcdffa4977&quot; style=&quot;font-family: Arial; background-color: initial;&quot;&gt;link to dataset metadata&lt;/a&gt;&lt;br&gt;&lt;/div&gt;&lt;/div&gt;" id="FN_kopKCpnc_J7Al5QHP-257">
          <mxCell style="shape=mxgraph.bpmn.data;labelPosition=center;verticalLabelPosition=bottom;align=center;verticalAlign=top;size=13;html=1;" vertex="1" parent="FN_kopKCpnc_J7Al5QHP-221">
            <mxGeometry x="490" y="275" width="30" height="34" as="geometry" />
          </mxCell>
        </UserObject>
        <mxCell id="FN_kopKCpnc_J7Al5QHP-258" style="edgeStyle=orthogonalEdgeStyle;rounded=0;orthogonalLoop=1;jettySize=auto;html=1;exitX=0.5;exitY=1;exitDx=0;exitDy=0;exitPerimeter=0;" edge="1" parent="FN_kopKCpnc_J7Al5QHP-221" source="FN_kopKCpnc_J7Al5QHP-257" target="FN_kopKCpnc_J7Al5QHP-257">
          <mxGeometry relative="1" as="geometry" />
        </mxCell>
        <mxCell id="QnSOdd-HAcT2mWiMDpwe-0" value="&lt;div style=&quot;&quot;&gt;&lt;span style=&quot;font-size: 10px;&quot;&gt;Is it correct to consider this input here? Roof segmentation has been applied to the entire flight area!&lt;/span&gt;&lt;/div&gt;" style="text;html=1;strokeColor=none;fillColor=#FF0000;align=left;verticalAlign=middle;rounded=0;whiteSpace=wrap;spacing=2;fontSize=6;labelBackgroundColor=none;" vertex="1" parent="FN_kopKCpnc_J7Al5QHP-221">
          <mxGeometry x="530" y="170" width="90" height="106" as="geometry" />
        </mxCell>
        <mxCell id="FN_kopKCpnc_J7Al5QHP-259" value="&lt;div&gt;Exclude not applicable areas&lt;/div&gt;" style="swimlane;html=1;startSize=58;horizontal=0;autosize=0;fixedWidth=0;" vertex="1" parent="FN_kopKCpnc_J7Al5QHP-220">
          <mxGeometry x="20" y="930" width="2480" height="790" as="geometry" />
        </mxCell>
        <mxCell id="FN_kopKCpnc_J7Al5QHP-260" value="&lt;h6 style=&quot;line-height: 90%; font-size: 8px;&quot;&gt;&lt;font style=&quot;font-size: 8px;&quot;&gt;&lt;span style=&quot;font-weight: 400;&quot;&gt;Overlay and add attribute from spatial layers of non-applicable areas&amp;nbsp;&lt;/span&gt;&lt;/font&gt;&lt;font color=&quot;#ff3333&quot;&gt;&lt;a href=&quot;https://usage.geocat.live/catalogue/srv/eng/catalog.search#/metadata/2dccbea6-8c1f-4402-af6d-78382cc6e8a1&quot;&gt;QGIS&lt;/a&gt;&amp;nbsp;&lt;a href=&quot;https://usage.geocat.live/catalogue/srv/eng/catalog.search#/metadata/91874db4-7086-4198-926c-d9e99a5f3024&quot;&gt;GDAL&lt;/a&gt;&lt;/font&gt;&lt;/h6&gt;&lt;p&gt;&lt;/p&gt;" style="points=[[0.25,0,0],[0.5,0,0],[0.75,0,0],[1,0.25,0],[1,0.5,0],[1,0.75,0],[0.75,1,0],[0.5,1,0],[0.25,1,0],[0,0.75,0],[0,0.5,0],[0,0.25,0]];shape=mxgraph.bpmn.task;whiteSpace=wrap;rectStyle=rounded;size=10;html=1;container=1;expand=0;collapsible=0;taskMarker=abstract;fillColor=#ff9129;" vertex="1" parent="FN_kopKCpnc_J7Al5QHP-259">
          <mxGeometry x="1157" y="617" width="141" height="25.5" as="geometry" />
        </mxCell>
        <mxCell id="FN_kopKCpnc_J7Al5QHP-261" value="" style="points=[[0.25,0.25,0],[0.5,0,0],[0.75,0.25,0],[1,0.5,0],[0.75,0.75,0],[0.5,1,0],[0.25,0.75,0],[0,0.5,0]];shape=mxgraph.bpmn.gateway2;html=1;verticalLabelPosition=bottom;labelBackgroundColor=#ffffff;verticalAlign=top;align=center;perimeter=rhombusPerimeter;outlineConnect=0;outline=none;symbol=none;gwType=parallel;" vertex="1" parent="FN_kopKCpnc_J7Al5QHP-259">
          <mxGeometry x="748" y="285" width="50" height="50" as="geometry" />
        </mxCell>
        <mxCell id="FN_kopKCpnc_J7Al5QHP-262" value="&lt;h6 style=&quot;line-height: 90%;&quot;&gt;&lt;font style=&quot;&quot;&gt;&lt;span style=&quot;font-size: 8px; font-weight: 400;&quot;&gt;Extract pv panels already installed from orthophoto l&lt;/span&gt;&lt;/font&gt;&lt;a href=&quot;https://usage.geocat.live/catalogue/srv/ita/catalog.search#/metadata/1d76f6d0-7934-494f-af73-952dca3b9ef1&quot; style=&quot;background-color: initial; font-size: 8px; font-weight: normal;&quot;&gt;ink to tool metadata&lt;/a&gt;&lt;span style=&quot;background-color: initial; font-size: 8px; color: rgb(255, 51, 51); font-weight: normal;&quot;&gt;&amp;nbsp;&lt;/span&gt;&lt;/h6&gt;&lt;p&gt;&lt;/p&gt;" style="points=[[0.25,0,0],[0.5,0,0],[0.75,0,0],[1,0.25,0],[1,0.5,0],[1,0.75,0],[0.75,1,0],[0.5,1,0],[0.25,1,0],[0,0.75,0],[0,0.5,0],[0,0.25,0]];shape=mxgraph.bpmn.task;whiteSpace=wrap;rectStyle=rounded;size=10;html=1;container=1;expand=0;collapsible=0;taskMarker=abstract;fillColor=#ff9129;" vertex="1" parent="FN_kopKCpnc_J7Al5QHP-259">
          <mxGeometry x="888" y="440" width="141" height="25.5" as="geometry" />
        </mxCell>
        <mxCell id="FN_kopKCpnc_J7Al5QHP-263" value="&lt;h6 style=&quot;line-height: 90%;&quot;&gt;&lt;font style=&quot;&quot;&gt;&lt;span style=&quot;font-size: 8px; font-weight: 400;&quot;&gt;DEDA: PV road proximity (historic centre) &lt;/span&gt;&lt;/font&gt;&lt;font color=&quot;#ff3333&quot; style=&quot;font-size: 8px;&quot;&gt;&lt;a href=&quot;https://usage.geocat.live/catalogue/srv/eng/catalog.search#/metadata/6f443f6d-c283-40c6-8c97-8047934f2cd5&quot;&gt;Link to tool metadata&lt;/a&gt;&amp;nbsp;&lt;/font&gt;&lt;/h6&gt;&lt;p&gt;&lt;/p&gt;" style="points=[[0.25,0,0],[0.5,0,0],[0.75,0,0],[1,0.25,0],[1,0.5,0],[1,0.75,0],[0.75,1,0],[0.5,1,0],[0.25,1,0],[0,0.75,0],[0,0.5,0],[0,0.25,0]];shape=mxgraph.bpmn.task;whiteSpace=wrap;rectStyle=rounded;size=10;html=1;container=1;expand=0;collapsible=0;taskMarker=abstract;fillColor=#ff9129;" vertex="1" parent="FN_kopKCpnc_J7Al5QHP-259">
          <mxGeometry x="888" y="140" width="141" height="25.5" as="geometry" />
        </mxCell>
        <UserObject label="&lt;div style=&quot;&quot;&gt;&lt;div style=&quot;&quot;&gt;&lt;font face=&quot;Arial&quot;&gt;&lt;span style=&quot;font-size: 8px;&quot;&gt;Vector map of roads&lt;/span&gt;&lt;/font&gt;&lt;br&gt;&lt;/div&gt;&lt;div style=&quot;font-size: 8px;&quot;&gt;&lt;font style=&quot;font-size: 8px;&quot; face=&quot;Arial&quot;&gt;&lt;a href=&quot;https://usage.geocat.live/catalogue/srv/ita/catalog.search#/metadata/809fc09c-9bbc-4e33-817d-b06d9d4abd77&quot;&gt;link to dataset metadata&lt;/a&gt;&lt;/font&gt;&lt;/div&gt;&lt;/div&gt;" id="FN_kopKCpnc_J7Al5QHP-264">
          <mxCell style="shape=mxgraph.bpmn.data;labelPosition=center;verticalLabelPosition=bottom;align=center;verticalAlign=top;size=15;html=1;" vertex="1" parent="FN_kopKCpnc_J7Al5QHP-259">
            <mxGeometry x="969" y="19" width="30" height="34" as="geometry" />
          </mxCell>
        </UserObject>
        <mxCell id="FN_kopKCpnc_J7Al5QHP-265" value="&lt;div style=&quot;&quot;&gt;(semantics: name of the road? As for regulation).&amp;nbsp;&lt;br&gt;&lt;/div&gt;" style="text;html=1;strokeColor=none;fillColor=#d5e8d4;align=center;verticalAlign=middle;rounded=0;whiteSpace=wrap;spacing=2;fontSize=6;labelBackgroundColor=none;" vertex="1" parent="FN_kopKCpnc_J7Al5QHP-259">
          <mxGeometry x="950" y="90" width="68" height="30" as="geometry" />
        </mxCell>
        <mxCell id="FN_kopKCpnc_J7Al5QHP-266" style="edgeStyle=orthogonalEdgeStyle;rounded=0;orthogonalLoop=1;jettySize=auto;html=1;entryX=0;entryY=0.5;entryDx=0;entryDy=0;entryPerimeter=0;exitX=0.5;exitY=0;exitDx=0;exitDy=0;exitPerimeter=0;" edge="1" parent="FN_kopKCpnc_J7Al5QHP-259" source="FN_kopKCpnc_J7Al5QHP-261" target="FN_kopKCpnc_J7Al5QHP-263">
          <mxGeometry relative="1" as="geometry" />
        </mxCell>
        <mxCell id="FN_kopKCpnc_J7Al5QHP-267" style="edgeStyle=orthogonalEdgeStyle;rounded=0;orthogonalLoop=1;jettySize=auto;html=1;entryX=0.5;entryY=0;entryDx=0;entryDy=0;entryPerimeter=0;dashed=1;" edge="1" parent="FN_kopKCpnc_J7Al5QHP-259" source="FN_kopKCpnc_J7Al5QHP-264" target="FN_kopKCpnc_J7Al5QHP-263">
          <mxGeometry relative="1" as="geometry" />
        </mxCell>
        <mxCell id="FN_kopKCpnc_J7Al5QHP-268" value="&lt;div style=&quot;&quot;&gt;&lt;h6 style=&quot;&quot;&gt;&lt;span style=&quot;font-size: 6px; font-weight: 400;&quot;&gt;Vector map of non suitable roof pitches based on their adjacency to specific roads and located in the historical center&lt;/span&gt;&lt;br&gt;&lt;/h6&gt;&lt;/div&gt;" style="text;html=1;strokeColor=none;fillColor=#d5e8d4;align=center;verticalAlign=middle;rounded=0;whiteSpace=wrap;spacing=2;fontSize=6;labelBackgroundColor=none;" vertex="1" parent="FN_kopKCpnc_J7Al5QHP-259">
          <mxGeometry x="910" y="287" width="127" height="29.75" as="geometry" />
        </mxCell>
        <UserObject label="&lt;div style=&quot;font-size: 9px;&quot;&gt;&lt;div style=&quot;&quot;&gt;&lt;span style=&quot;background-color: rgb(255, 255, 255); text-align: left; white-space: pre-wrap;&quot;&gt;&lt;font face=&quot;Helvetica&quot; style=&quot;font-size: 9px;&quot;&gt;Roof Pitches Irradiation in historic centre&lt;/font&gt;&lt;/span&gt;&lt;span style=&quot;background-color: rgb(255, 255, 255); font-family: docs-Calibri; text-align: left; white-space: pre-wrap;&quot;&gt; &lt;/span&gt;&lt;span style=&quot;font-family: Arial; background-color: initial;&quot;&gt;&amp;nbsp;&lt;/span&gt;&lt;/div&gt;&lt;div style=&quot;&quot;&gt;&lt;a href=&quot;https://usage.geocat.live/catalogue/srv/ita/catalog.search#/metadata/cc79e07c-7cf9-4801-a2fa-e9add47d1cd0&quot; style=&quot;font-family: Arial; background-color: initial;&quot;&gt;link to dataset metadata&lt;/a&gt;&lt;br&gt;&lt;/div&gt;&lt;/div&gt;" id="FN_kopKCpnc_J7Al5QHP-269">
          <mxCell style="shape=mxgraph.bpmn.data;labelPosition=center;verticalLabelPosition=bottom;align=center;verticalAlign=top;size=15;html=1;" vertex="1" parent="FN_kopKCpnc_J7Al5QHP-259">
            <mxGeometry x="950.5" y="192.25" width="30" height="34" as="geometry" />
          </mxCell>
        </UserObject>
        <mxCell id="FN_kopKCpnc_J7Al5QHP-270" style="edgeStyle=orthogonalEdgeStyle;rounded=0;orthogonalLoop=1;jettySize=auto;html=1;entryX=0;entryY=0;entryDx=7.5;entryDy=0;entryPerimeter=0;dashed=1;" edge="1" parent="FN_kopKCpnc_J7Al5QHP-259" source="FN_kopKCpnc_J7Al5QHP-263" target="FN_kopKCpnc_J7Al5QHP-269">
          <mxGeometry relative="1" as="geometry" />
        </mxCell>
        <mxCell id="FN_kopKCpnc_J7Al5QHP-271" style="edgeStyle=orthogonalEdgeStyle;rounded=0;orthogonalLoop=1;jettySize=auto;html=1;entryX=0.224;entryY=-0.003;entryDx=0;entryDy=0;entryPerimeter=0;exitX=0;exitY=0;exitDx=30;exitDy=24.5;exitPerimeter=0;dashed=1;" edge="1" parent="FN_kopKCpnc_J7Al5QHP-259" source="FN_kopKCpnc_J7Al5QHP-269" target="FN_kopKCpnc_J7Al5QHP-260">
          <mxGeometry relative="1" as="geometry">
            <mxPoint x="949.5" y="215.56" as="sourcePoint" />
            <mxPoint x="1141" y="546.435" as="targetPoint" />
          </mxGeometry>
        </mxCell>
        <UserObject label="&lt;div style=&quot;&quot;&gt;&lt;div style=&quot;&quot;&gt;&lt;font face=&quot;Arial&quot;&gt;&lt;span style=&quot;font-size: 8px;&quot;&gt;Orthophoto 2022 10cm resolution&lt;/span&gt;&lt;/font&gt;&lt;br&gt;&lt;/div&gt;&lt;div style=&quot;font-size: 8px;&quot;&gt;&lt;font face=&quot;Arial&quot; style=&quot;font-size: 8px;&quot;&gt;&amp;nbsp;&lt;a href=&quot;https://usage.geocat.live/catalogue/srv/eng/catalog.search#/metadata/f4e9f405-5fbb-4e82-af15-d8045c14c89a&quot;&gt;link to dataset metadata&lt;/a&gt;&lt;/font&gt;&lt;/div&gt;&lt;/div&gt;" id="FN_kopKCpnc_J7Al5QHP-272">
          <mxCell style="shape=mxgraph.bpmn.data;labelPosition=center;verticalLabelPosition=bottom;align=center;verticalAlign=top;size=15;html=1;" vertex="1" parent="FN_kopKCpnc_J7Al5QHP-259">
            <mxGeometry x="943.5" y="350" width="30" height="34" as="geometry" />
          </mxCell>
        </UserObject>
        <mxCell id="FN_kopKCpnc_J7Al5QHP-273" style="edgeStyle=orthogonalEdgeStyle;rounded=0;orthogonalLoop=1;jettySize=auto;html=1;entryX=0.5;entryY=0;entryDx=0;entryDy=0;entryPerimeter=0;dashed=1;" edge="1" parent="FN_kopKCpnc_J7Al5QHP-259" source="FN_kopKCpnc_J7Al5QHP-272" target="FN_kopKCpnc_J7Al5QHP-262">
          <mxGeometry relative="1" as="geometry" />
        </mxCell>
        <UserObject label="&lt;div style=&quot;&quot;&gt;&lt;div style=&quot;&quot;&gt;&lt;span style=&quot;background-color: initial; font-size: 8px;&quot;&gt;&lt;font face=&quot;Arial&quot;&gt;Estimate of photovoltaic panels&lt;/font&gt;&lt;/span&gt;&lt;/div&gt;&lt;div style=&quot;&quot;&gt;&lt;font face=&quot;Arial&quot;&gt;&lt;span style=&quot;font-size: 8px;&quot;&gt;(non suitable areas)&lt;/span&gt;&lt;/font&gt;&lt;br&gt;&lt;/div&gt;&lt;div style=&quot;font-size: 8px;&quot;&gt;&lt;font style=&quot;font-size: 8px;&quot; face=&quot;Arial&quot;&gt;&amp;nbsp;&lt;a href=&quot;https://usage.geocat.live/catalogue/srv/ita/catalog.search#/metadata/9d7692d5-a22f-4e9d-80aa-8fea42d2e67e&quot;&gt;link to dataset metadata&lt;/a&gt;&lt;/font&gt;&lt;/div&gt;&lt;/div&gt;" id="FN_kopKCpnc_J7Al5QHP-274">
          <mxCell style="shape=mxgraph.bpmn.data;labelPosition=center;verticalLabelPosition=bottom;align=center;verticalAlign=top;size=15;html=1;" vertex="1" parent="FN_kopKCpnc_J7Al5QHP-259">
            <mxGeometry x="950.5" y="499" width="30" height="34" as="geometry" />
          </mxCell>
        </UserObject>
        <mxCell id="FN_kopKCpnc_J7Al5QHP-275" style="edgeStyle=orthogonalEdgeStyle;rounded=0;orthogonalLoop=1;jettySize=auto;html=1;entryX=0;entryY=0;entryDx=7.5;entryDy=0;entryPerimeter=0;dashed=1;" edge="1" parent="FN_kopKCpnc_J7Al5QHP-259" source="FN_kopKCpnc_J7Al5QHP-262" target="FN_kopKCpnc_J7Al5QHP-274">
          <mxGeometry relative="1" as="geometry" />
        </mxCell>
        <mxCell id="FN_kopKCpnc_J7Al5QHP-276" style="edgeStyle=orthogonalEdgeStyle;rounded=0;orthogonalLoop=1;jettySize=auto;html=1;entryX=0;entryY=0.5;entryDx=0;entryDy=0;entryPerimeter=0;dashed=1;" edge="1" parent="FN_kopKCpnc_J7Al5QHP-259" source="FN_kopKCpnc_J7Al5QHP-274" target="FN_kopKCpnc_J7Al5QHP-260">
          <mxGeometry relative="1" as="geometry" />
        </mxCell>
        <UserObject label="&lt;div style=&quot;&quot;&gt;&lt;div style=&quot;&quot;&gt;&lt;font face=&quot;Arial&quot;&gt;&lt;span style=&quot;font-size: 8px;&quot;&gt;Cultural Heritage&lt;/span&gt;&lt;/font&gt;&lt;/div&gt;&lt;div style=&quot;font-size: 8px;&quot;&gt;&lt;font style=&quot;font-size: 8px;&quot; face=&quot;Arial&quot;&gt;&amp;nbsp;&lt;a href=&quot;https://usage.geocat.live/catalogue/srv/ita/catalog.search#/metadata/3318654a-3623-4a94-8f3c-84e2ed3a0fdb&quot;&gt;link to dataset metadata&lt;/a&gt;&lt;/font&gt;&lt;/div&gt;&lt;/div&gt;" id="FN_kopKCpnc_J7Al5QHP-277">
          <mxCell style="shape=mxgraph.bpmn.data;labelPosition=center;verticalLabelPosition=bottom;align=center;verticalAlign=top;size=11;html=1;strokeColor=default;fontFamily=Helvetica;fontSize=12;fontColor=default;fillColor=default;" vertex="1" parent="FN_kopKCpnc_J7Al5QHP-259">
            <mxGeometry x="1268" y="474" width="30" height="33" as="geometry" />
          </mxCell>
        </UserObject>
        <mxCell id="FN_kopKCpnc_J7Al5QHP-278" value="&lt;div style=&quot;&quot;&gt;protected buildings&lt;br&gt;&lt;/div&gt;" style="text;html=1;strokeColor=none;fillColor=#d5e8d4;align=center;verticalAlign=middle;rounded=0;whiteSpace=wrap;spacing=2;fontSize=6;labelBackgroundColor=none;" vertex="1" parent="FN_kopKCpnc_J7Al5QHP-259">
          <mxGeometry x="1400" y="550" width="68" height="20" as="geometry" />
        </mxCell>
        <mxCell id="FN_kopKCpnc_J7Al5QHP-279" style="edgeStyle=orthogonalEdgeStyle;rounded=0;orthogonalLoop=1;jettySize=auto;html=1;entryX=0.75;entryY=0;entryDx=0;entryDy=0;entryPerimeter=0;dashed=1;" edge="1" parent="FN_kopKCpnc_J7Al5QHP-259" source="FN_kopKCpnc_J7Al5QHP-277">
          <mxGeometry relative="1" as="geometry">
            <Array as="points">
              <mxPoint x="1250" y="580" />
              <mxPoint x="1258" y="580" />
            </Array>
            <mxPoint x="1257.75" y="617" as="targetPoint" />
          </mxGeometry>
        </mxCell>
        <mxCell id="FN_kopKCpnc_J7Al5QHP-280" style="edgeStyle=orthogonalEdgeStyle;rounded=0;orthogonalLoop=1;jettySize=auto;html=1;entryX=0;entryY=0.5;entryDx=0;entryDy=0;entryPerimeter=0;exitX=0.5;exitY=1;exitDx=0;exitDy=0;exitPerimeter=0;" edge="1" parent="FN_kopKCpnc_J7Al5QHP-259" source="FN_kopKCpnc_J7Al5QHP-261" target="FN_kopKCpnc_J7Al5QHP-262">
          <mxGeometry relative="1" as="geometry" />
        </mxCell>
        <mxCell id="FN_kopKCpnc_J7Al5QHP-281" value="&lt;div style=&quot;&quot;&gt;&lt;h6 style=&quot;&quot;&gt;&lt;span style=&quot;font-size: 6px; font-weight: 400;&quot;&gt;Vector layer containing the pitches or pitches fraction and other potential candidate areas in the city with associated received irradiation (KWh) per year, per m2? On which it’s possible to install solar panels&lt;/span&gt;&lt;br&gt;&lt;/h6&gt;&lt;/div&gt;" style="text;html=1;strokeColor=none;fillColor=#d5e8d4;align=center;verticalAlign=middle;rounded=0;whiteSpace=wrap;spacing=2;fontSize=6;labelBackgroundColor=none;" vertex="1" parent="FN_kopKCpnc_J7Al5QHP-259">
          <mxGeometry x="1037" y="730" width="149" height="29.75" as="geometry" />
        </mxCell>
        <UserObject label="&lt;div style=&quot;&quot;&gt;&lt;div style=&quot;&quot;&gt;&lt;span style=&quot;text-align: left; white-space: pre-wrap; background-color: rgb(255, 255, 255);&quot;&gt;&lt;font style=&quot;font-size: 8px;&quot; face=&quot;Helvetica&quot;&gt;Roof Pitches eligible for Photovoltaic panel installation&lt;/font&gt;&lt;/span&gt;&lt;br&gt;&lt;/div&gt;&lt;div style=&quot;font-size: 8px;&quot;&gt;&lt;font face=&quot;Arial&quot; style=&quot;font-size: 8px;&quot;&gt;&lt;a href=&quot;https://usage.geocat.live/catalogue/srv/eng/catalog.search#/metadata/7e081fdc-a43e-45ff-acaf-a674fe2546c7&quot;&gt;link to dataset metadata&lt;/a&gt;&lt;/font&gt;&lt;/div&gt;&lt;/div&gt;" id="FN_kopKCpnc_J7Al5QHP-282">
          <mxCell style="shape=mxgraph.bpmn.data;labelPosition=center;verticalLabelPosition=bottom;align=center;verticalAlign=top;size=15;html=1;" vertex="1" parent="FN_kopKCpnc_J7Al5QHP-259">
            <mxGeometry x="1220.5" y="670" width="30" height="34" as="geometry" />
          </mxCell>
        </UserObject>
        <mxCell id="FN_kopKCpnc_J7Al5QHP-283" style="edgeStyle=orthogonalEdgeStyle;rounded=0;orthogonalLoop=1;jettySize=auto;html=1;entryX=0;entryY=0;entryDx=7.5;entryDy=0;entryPerimeter=0;dashed=1;" edge="1" parent="FN_kopKCpnc_J7Al5QHP-259" source="FN_kopKCpnc_J7Al5QHP-260" target="FN_kopKCpnc_J7Al5QHP-282">
          <mxGeometry relative="1" as="geometry" />
        </mxCell>
        <mxCell id="FN_kopKCpnc_J7Al5QHP-284" style="edgeStyle=orthogonalEdgeStyle;rounded=0;orthogonalLoop=1;jettySize=auto;html=1;entryX=0.5;entryY=0;entryDx=0;entryDy=0;entryPerimeter=0;" edge="1" parent="FN_kopKCpnc_J7Al5QHP-259" source="FN_kopKCpnc_J7Al5QHP-263" target="FN_kopKCpnc_J7Al5QHP-260">
          <mxGeometry relative="1" as="geometry" />
        </mxCell>
        <mxCell id="FN_kopKCpnc_J7Al5QHP-285" style="edgeStyle=orthogonalEdgeStyle;rounded=0;orthogonalLoop=1;jettySize=auto;html=1;entryX=0.5;entryY=0;entryDx=0;entryDy=0;entryPerimeter=0;" edge="1" parent="FN_kopKCpnc_J7Al5QHP-259" source="FN_kopKCpnc_J7Al5QHP-262" target="FN_kopKCpnc_J7Al5QHP-260">
          <mxGeometry relative="1" as="geometry" />
        </mxCell>
        <UserObject label="&lt;div style=&quot;&quot;&gt;&lt;div style=&quot;&quot;&gt;&lt;font style=&quot;font-size: 7px;&quot; face=&quot;Arial&quot;&gt;&lt;span style=&quot;&quot;&gt;Vector map of&amp;nbsp;&lt;/span&gt;&lt;/font&gt;&lt;span style=&quot;background-color: initial;&quot;&gt;&lt;span style=&quot;font-size: 7px;&quot;&gt;Listed buildings (&lt;/span&gt;&lt;font style=&quot;font-size: 7px;&quot;&gt;Classe_int = 1&lt;/font&gt;&lt;span style=&quot;font-size: 7px;&quot;&gt;)&lt;/span&gt;&lt;/span&gt;&lt;/div&gt;&lt;div style=&quot;font-size: 7px;&quot;&gt;&lt;a style=&quot;background-color: initial; font-family: Arial;&quot; href=&quot;https://usage.geocat.live/catalogue/srv/ita/catalog.search#/metadata/a69ad095-02a5-40d1-a10c-41fb7a650d66&quot;&gt;link to dataset metadata&lt;/a&gt;&lt;/div&gt;&lt;/div&gt;" id="FN_kopKCpnc_J7Al5QHP-286">
          <mxCell style="shape=mxgraph.bpmn.data;labelPosition=center;verticalLabelPosition=bottom;align=center;verticalAlign=top;size=15;html=1;" vertex="1" parent="FN_kopKCpnc_J7Al5QHP-259">
            <mxGeometry x="1380" y="474" width="30" height="34" as="geometry" />
          </mxCell>
        </UserObject>
        <mxCell id="FN_kopKCpnc_J7Al5QHP-287" style="edgeStyle=orthogonalEdgeStyle;rounded=0;orthogonalLoop=1;jettySize=auto;html=1;dashed=1;entryX=0.944;entryY=-0.045;entryDx=0;entryDy=0;entryPerimeter=0;" edge="1" parent="FN_kopKCpnc_J7Al5QHP-259" source="FN_kopKCpnc_J7Al5QHP-286" target="FN_kopKCpnc_J7Al5QHP-260">
          <mxGeometry relative="1" as="geometry">
            <mxPoint x="1370.0049999999997" y="616.9975000000001" as="targetPoint" />
            <Array as="points">
              <mxPoint x="1395" y="513" />
              <mxPoint x="1390" y="513" />
              <mxPoint x="1390" y="616" />
            </Array>
          </mxGeometry>
        </mxCell>
        <mxCell id="FN_kopKCpnc_J7Al5QHP-293" value="&lt;div&gt;Manual validation of exception cases (e.g. plane roofs in historical centres)&lt;/div&gt;&lt;div&gt;&lt;br&gt;&lt;/div&gt;" style="swimlane;html=1;startSize=58;horizontal=0;whiteSpace=wrap;" vertex="1" parent="FN_kopKCpnc_J7Al5QHP-220">
          <mxGeometry x="20" y="1720" width="2480" height="240" as="geometry" />
        </mxCell>
        <mxCell id="FN_kopKCpnc_J7Al5QHP-294" value="&lt;h6 style=&quot;line-height: 90%;&quot;&gt;&lt;font style=&quot;&quot;&gt;&lt;span style=&quot;font-size: 8px; font-weight: 400;&quot;&gt;GIS application (qgis, etc..) to validate the dataset in input.&amp;nbsp; Well known and pubblicly available application&amp;nbsp;&amp;nbsp;&lt;/span&gt;&lt;/font&gt;&lt;font color=&quot;#ff3333&quot; style=&quot;font-size: 8px;&quot;&gt;&lt;a href=&quot;https://usage.geocat.live/catalogue/srv/eng/catalog.search#/metadata/2dccbea6-8c1f-4402-af6d-78382cc6e8a1&quot;&gt;Link to QGis &lt;/a&gt;Link to Arcmap&amp;nbsp;&lt;/font&gt;&lt;/h6&gt;&lt;p&gt;&lt;/p&gt;" style="points=[[0.25,0,0],[0.5,0,0],[0.75,0,0],[1,0.25,0],[1,0.5,0],[1,0.75,0],[0.75,1,0],[0.5,1,0],[0.25,1,0],[0,0.75,0],[0,0.5,0],[0,0.25,0]];shape=mxgraph.bpmn.task;whiteSpace=wrap;rectStyle=rounded;size=10;html=1;container=1;expand=0;collapsible=0;taskMarker=abstract;fillColor=#ff9129;" vertex="1" parent="FN_kopKCpnc_J7Al5QHP-293">
          <mxGeometry x="1310" y="20" width="140" height="50" as="geometry" />
        </mxCell>
        <mxCell id="FN_kopKCpnc_J7Al5QHP-295" value="&lt;div style=&quot;&quot;&gt;&lt;h6 style=&quot;&quot;&gt;&lt;span style=&quot;font-size: 6px; font-weight: 400;&quot;&gt;(Manually) validated vectorial layer containing the pitches or pitches fraction and other potential candidate areas in the city with associated received irradiation (KWh) per year, per m2? On which it’s possible to install solar panels&lt;/span&gt;&lt;br&gt;&lt;/h6&gt;&lt;/div&gt;" style="text;html=1;strokeColor=none;fillColor=#d5e8d4;align=center;verticalAlign=middle;rounded=0;whiteSpace=wrap;spacing=2;fontSize=6;labelBackgroundColor=none;" vertex="1" parent="FN_kopKCpnc_J7Al5QHP-293">
          <mxGeometry x="1156.5" y="170" width="167" height="29.75" as="geometry" />
        </mxCell>
        <UserObject label="&lt;div style=&quot;&quot;&gt;&lt;div style=&quot;&quot;&gt;&lt;span style=&quot;background-color: rgb(255, 255, 255); text-align: left; white-space: pre-wrap;&quot;&gt;&lt;font style=&quot;font-size: 8px;&quot; face=&quot;Helvetica&quot;&gt;Roof Pitches eligible of Photovoltaic panel installation (&lt;b&gt;validated&lt;/b&gt;&lt;/font&gt;&lt;/span&gt;&lt;span style=&quot;font-size: 8px; font-family: Arial; background-color: initial;&quot;&gt;)&amp;nbsp;&lt;/span&gt;&lt;span style=&quot;font-size: 8px; font-family: Arial; background-color: initial;&quot;&gt;&amp;nbsp;&lt;/span&gt;&lt;a style=&quot;font-size: 8px; font-family: Arial; background-color: initial;&quot; href=&quot;https://usage.geocat.live/catalogue/srv/eng/catalog.search#/metadata/4607d7fd-611a-4cb5-990f-e3215e5f7f3f&quot;&gt;link to dataset metadata&lt;/a&gt;&lt;br&gt;&lt;/div&gt;&lt;/div&gt;" id="FN_kopKCpnc_J7Al5QHP-296">
          <mxCell style="shape=mxgraph.bpmn.data;labelPosition=center;verticalLabelPosition=bottom;align=center;verticalAlign=top;size=15;html=1;fillColor=#e1d5e7;strokeColor=#9673a6;" vertex="1" parent="FN_kopKCpnc_J7Al5QHP-293">
            <mxGeometry x="1372.5" y="109" width="30" height="34" as="geometry" />
          </mxCell>
        </UserObject>
        <mxCell id="FN_kopKCpnc_J7Al5QHP-297" style="edgeStyle=orthogonalEdgeStyle;rounded=0;orthogonalLoop=1;jettySize=auto;html=1;entryX=0;entryY=0;entryDx=7.5;entryDy=0;entryPerimeter=0;dashed=1;" edge="1" parent="FN_kopKCpnc_J7Al5QHP-293" source="FN_kopKCpnc_J7Al5QHP-294" target="FN_kopKCpnc_J7Al5QHP-296">
          <mxGeometry relative="1" as="geometry" />
        </mxCell>
        <mxCell id="FN_kopKCpnc_J7Al5QHP-298" value="&lt;div&gt;Classify pitches per preferable pitch / pitch area on which o install PV panels&lt;/div&gt;&lt;div&gt;&lt;br&gt;&lt;/div&gt;" style="swimlane;html=1;startSize=58;horizontal=0;whiteSpace=wrap;" vertex="1" parent="FN_kopKCpnc_J7Al5QHP-220">
          <mxGeometry x="20" y="1960" width="2480" height="250" as="geometry" />
        </mxCell>
        <mxCell id="FN_kopKCpnc_J7Al5QHP-299" value="&lt;h6 style=&quot;line-height: 90%;&quot;&gt;&lt;font style=&quot;&quot;&gt;&lt;span style=&quot;font-size: 8px; font-weight: 400;&quot;&gt;Classify pitches in a roof, identifying an order from best to worst choice to install solar panel&amp;nbsp;&lt;/span&gt;&lt;/font&gt;&lt;font style=&quot;font-size: 8px;&quot; color=&quot;#ff3333&quot;&gt;&lt;a href=&quot;https://usage.geocat.live/catalogue/srv/eng/catalog.search#/metadata/91874db4-7086-4198-926c-d9e99a5f3024&quot;&gt;GDAL&lt;/a&gt;&amp;nbsp;&lt;a href=&quot;https://usage.geocat.live/catalogue/srv/eng/catalog.search#/metadata/2dccbea6-8c1f-4402-af6d-78382cc6e8a1&quot;&gt;QGIS&lt;/a&gt;&lt;/font&gt;&lt;/h6&gt;&lt;p&gt;&lt;/p&gt;" style="points=[[0.25,0,0],[0.5,0,0],[0.75,0,0],[1,0.25,0],[1,0.5,0],[1,0.75,0],[0.75,1,0],[0.5,1,0],[0.25,1,0],[0,0.75,0],[0,0.5,0],[0,0.25,0]];shape=mxgraph.bpmn.task;whiteSpace=wrap;rectStyle=rounded;size=10;html=1;container=1;expand=0;collapsible=0;taskMarker=abstract;fillColor=#ff9129;" vertex="1" parent="FN_kopKCpnc_J7Al5QHP-298">
          <mxGeometry x="1458" y="40" width="141" height="40" as="geometry" />
        </mxCell>
        <mxCell id="FN_kopKCpnc_J7Al5QHP-300" value="&lt;div style=&quot;&quot;&gt;&lt;h6 style=&quot;&quot;&gt;&lt;span style=&quot;font-size: 6px; font-weight: 400;&quot;&gt;(Manually) validated Vectorial layer containing the pitches or pitches fraction of the city with associated received irradiation (KWh) per year, per m2? on which it’s possible to install solar panels. Classified based on order of efficiency (from best to worst) per roof&lt;/span&gt;&lt;br&gt;&lt;/h6&gt;&lt;/div&gt;" style="text;html=1;strokeColor=none;fillColor=#d5e8d4;align=center;verticalAlign=middle;rounded=0;whiteSpace=wrap;spacing=2;fontSize=6;labelBackgroundColor=none;" vertex="1" parent="FN_kopKCpnc_J7Al5QHP-298">
          <mxGeometry x="1320" y="186" width="167" height="44" as="geometry" />
        </mxCell>
        <UserObject label="&lt;div style=&quot;font-size: 8px;&quot;&gt;&lt;div&gt;&lt;span style=&quot;background-color: rgb(255, 255, 255); text-align: left; white-space: pre-wrap;&quot;&gt;Roof Pitches eligible of Photovoltaic panel installation sorted by solar potential &lt;/span&gt;&lt;a href=&quot;https://usage.geocat.live/catalogue/srv/eng/catalog.search#/metadata/1de9f514-9291-4c37-98fb-be01ec8e45df&quot; style=&quot;font-family: Arial; background-color: initial;&quot;&gt;link to dataset metadata&lt;/a&gt;&lt;br&gt;&lt;/div&gt;&lt;/div&gt;" id="FN_kopKCpnc_J7Al5QHP-301">
          <mxCell style="shape=mxgraph.bpmn.data;labelPosition=center;verticalLabelPosition=bottom;align=center;verticalAlign=top;size=15;html=1;" vertex="1" parent="FN_kopKCpnc_J7Al5QHP-298">
            <mxGeometry x="1520.5" y="120" width="30" height="34" as="geometry" />
          </mxCell>
        </UserObject>
        <mxCell id="FN_kopKCpnc_J7Al5QHP-302" style="edgeStyle=orthogonalEdgeStyle;rounded=0;orthogonalLoop=1;jettySize=auto;html=1;entryX=0;entryY=0;entryDx=7.5;entryDy=0;entryPerimeter=0;dashed=1;" edge="1" parent="FN_kopKCpnc_J7Al5QHP-298" source="FN_kopKCpnc_J7Al5QHP-299" target="FN_kopKCpnc_J7Al5QHP-301">
          <mxGeometry relative="1" as="geometry" />
        </mxCell>
        <mxCell id="FN_kopKCpnc_J7Al5QHP-303" value="&lt;div&gt;Calculate approximated yearly produced energy and energy value per pitch or pitch fraction&amp;nbsp;&lt;/div&gt;&lt;div&gt;&lt;br&gt;&lt;/div&gt;" style="swimlane;html=1;startSize=58;horizontal=0;whiteSpace=wrap;" vertex="1" parent="FN_kopKCpnc_J7Al5QHP-220">
          <mxGeometry x="20" y="2210" width="2480" height="330" as="geometry" />
        </mxCell>
        <mxCell id="FN_kopKCpnc_J7Al5QHP-304" value="&lt;h6 style=&quot;line-height: 90%;&quot;&gt;&lt;span style=&quot;font-weight: normal;&quot;&gt;The calculation of the surface area for the installation is carried out based on the average potential (kWh ) produced per m2: 7m2 = 1kwh. Suitable surface area/7 = Total potential kWh&amp;nbsp;&lt;/span&gt;&lt;font color=&quot;#ff3333&quot; style=&quot;background-color: initial; font-size: 8px;&quot;&gt;&lt;a href=&quot;https://usage.geocat.live/catalogue/srv/eng/catalog.search#/metadata/f85f91a2-ef39-4b28-b199-96820b6fff1b&quot;&gt;&lt;span style=&quot;font-weight: normal;&quot;&gt;L&lt;/span&gt;ink to tool metadata&lt;/a&gt;&lt;/font&gt;&lt;/h6&gt;&lt;p&gt;&lt;/p&gt;" style="points=[[0.25,0,0],[0.5,0,0],[0.75,0,0],[1,0.25,0],[1,0.5,0],[1,0.75,0],[0.75,1,0],[0.5,1,0],[0.25,1,0],[0,0.75,0],[0,0.5,0],[0,0.25,0]];shape=mxgraph.bpmn.task;whiteSpace=wrap;rectStyle=rounded;size=10;html=1;container=1;expand=0;collapsible=0;taskMarker=abstract;fillColor=#ff9129;" vertex="1" parent="FN_kopKCpnc_J7Al5QHP-303">
          <mxGeometry x="1611" y="108" width="178" height="50" as="geometry" />
        </mxCell>
        <mxCell id="FN_kopKCpnc_J7Al5QHP-305" value="&lt;div style=&quot;&quot;&gt;&lt;h6 style=&quot;font-size: 6px;&quot;&gt;&lt;span style=&quot;font-weight: normal;&quot;&gt;&lt;span style=&quot;font-size: 6px;&quot;&gt;Decision Ready Information:&amp;nbsp;&lt;/span&gt;Vectorial map of the roof pitches containing: 1) per roof, which is the best pitch on which to install solar panel and in which area of the pitch&lt;span style=&quot;background-color: initial;&quot;&gt;- (maximum) annual solar power KWh/m2; 2)&lt;/span&gt;&amp;nbsp;(maximum) approximated potential annual savings in €/year.&amp;nbsp;&amp;nbsp;&lt;/span&gt;Add a field indicating the rules for excluding roofs and areas from the solar potential calculation. This operation occurs in the step &quot;Exclude not applicable areas&quot; - &quot;Overlay and exclude spatial layers of non-applicable areas&quot;&lt;/h6&gt;&lt;/div&gt;" style="text;html=1;strokeColor=none;fillColor=#d5e8d4;align=center;verticalAlign=middle;rounded=0;whiteSpace=wrap;spacing=2;fontSize=6;labelBackgroundColor=none;fontStyle=0" vertex="1" parent="FN_kopKCpnc_J7Al5QHP-303">
          <mxGeometry x="1610" y="267" width="183" height="63" as="geometry" />
        </mxCell>
        <mxCell id="FN_kopKCpnc_J7Al5QHP-306" value="&lt;font style=&quot;background-color: rgb(204, 255, 204); font-size: 5px;&quot;&gt;Raniero per metadato e attributi&lt;/font&gt;" style="text;html=1;align=center;verticalAlign=middle;whiteSpace=wrap;rounded=0;" vertex="1" parent="FN_kopKCpnc_J7Al5QHP-303">
          <mxGeometry x="1563" y="281" width="60" height="30" as="geometry" />
        </mxCell>
        <UserObject label="&lt;div style=&quot;&quot;&gt;&lt;div style=&quot;&quot;&gt;&lt;font color=&quot;#000000&quot;&gt;&lt;font face=&quot;Arial&quot; style=&quot;&quot;&gt;&lt;span style=&quot;font-size: 8px;&quot;&gt;Average potential ( KWH ) for each suitable roof pitch.&lt;/span&gt;&lt;/font&gt;&lt;br&gt;&lt;/font&gt;&lt;/div&gt;&lt;div style=&quot;font-size: 8px;&quot;&gt;&lt;font style=&quot;font-size: 8px;&quot; face=&quot;Arial&quot; color=&quot;#000000&quot;&gt;&amp;nbsp; &amp;nbsp;&lt;a href=&quot;https://usage.geocat.live/catalogue/srv/eng/catalog.search#/metadata/0f9db234-fb86-40ad-824a-8f330d2c41d6&quot; style=&quot;&quot;&gt;link to dataset metadata&lt;/a&gt;&lt;/font&gt;&lt;/div&gt;&lt;/div&gt;" id="FN_kopKCpnc_J7Al5QHP-307">
          <mxCell style="shape=mxgraph.bpmn.data;labelPosition=center;verticalLabelPosition=bottom;align=center;verticalAlign=top;size=15;html=1;fillColor=#e1d5e7;strokeColor=#9673a6;" vertex="1" parent="FN_kopKCpnc_J7Al5QHP-303">
            <mxGeometry x="1694.5" y="199" width="30" height="34" as="geometry" />
          </mxCell>
        </UserObject>
        <mxCell id="FN_kopKCpnc_J7Al5QHP-308" style="edgeStyle=orthogonalEdgeStyle;rounded=0;orthogonalLoop=1;jettySize=auto;html=1;entryX=0;entryY=0;entryDx=7.5;entryDy=0;entryPerimeter=0;dashed=1;" edge="1" parent="FN_kopKCpnc_J7Al5QHP-303" source="FN_kopKCpnc_J7Al5QHP-304" target="FN_kopKCpnc_J7Al5QHP-307">
          <mxGeometry relative="1" as="geometry" />
        </mxCell>
        <mxCell id="FN_kopKCpnc_J7Al5QHP-309" value="Share Decision-REady Information with decision makers" style="swimlane;html=1;startSize=58;horizontal=0;whiteSpace=wrap;fontStyle=1" vertex="1" parent="FN_kopKCpnc_J7Al5QHP-220">
          <mxGeometry x="20" y="2540" width="2480" height="170" as="geometry" />
        </mxCell>
        <mxCell id="FN_kopKCpnc_J7Al5QHP-310" value="&lt;h6 style=&quot;line-height: 90%; font-size: 8px;&quot;&gt;&lt;span style=&quot;background-color: initial; font-weight: normal;&quot;&gt;Share Decision Ready Information with decision makers with Gis viewers&amp;nbsp;&lt;/span&gt;&lt;span style=&quot;background-color: initial; font-weight: normal;&quot;&gt;&amp;nbsp;as &lt;/span&gt;&lt;span style=&quot;background-color: initial;&quot;&gt;Geonext&lt;/span&gt;&lt;span style=&quot;background-color: initial; font-weight: normal;&quot;&gt;&amp;nbsp;&lt;/span&gt;&lt;font color=&quot;#ff3333&quot; style=&quot;background-color: initial; font-weight: normal; font-size: 8px;&quot;&gt;&lt;a href=&quot;https://usage.geocat.live/catalogue/srv/eng/catalog.search#/metadata/f4fe374e-0a56-4910-9f3a-e8b7519c373e&quot;&gt;Link to tool metadata&lt;/a&gt;&amp;nbsp;&lt;/font&gt;&lt;font style=&quot;background-color: initial; font-weight: normal; font-size: 8px;&quot;&gt;or web data stories (e.g. &lt;a href=&quot;https://www.comune.ferrara.it/it/geoportale/dati/storie-di-dati&quot;&gt;stories&lt;/a&gt;) explain limitation of the reported production values (i.e. cloudy conditions, incliantion of installe pannel, effective installable surface on the roof (cimnies, roof boundaries)&lt;/font&gt;&lt;/h6&gt;&lt;p&gt;&lt;/p&gt;" style="points=[[0.25,0,0],[0.5,0,0],[0.75,0,0],[1,0.25,0],[1,0.5,0],[1,0.75,0],[0.75,1,0],[0.5,1,0],[0.25,1,0],[0,0.75,0],[0,0.5,0],[0,0.25,0]];shape=mxgraph.bpmn.task;whiteSpace=wrap;rectStyle=rounded;size=10;html=1;container=1;expand=0;collapsible=0;taskMarker=abstract;fillColor=#ff9129;" vertex="1" parent="FN_kopKCpnc_J7Al5QHP-309">
          <mxGeometry x="1850" y="67" width="205" height="53" as="geometry" />
        </mxCell>
        <mxCell id="FN_kopKCpnc_J7Al5QHP-311" value="&lt;div&gt;Communicate to citizens in attractive way&lt;/div&gt;" style="swimlane;html=1;startSize=58;horizontal=0;whiteSpace=wrap;" vertex="1" parent="FN_kopKCpnc_J7Al5QHP-220">
          <mxGeometry x="20" y="2710" width="2480" height="110" as="geometry" />
        </mxCell>
        <mxCell id="FN_kopKCpnc_J7Al5QHP-312" style="edgeStyle=orthogonalEdgeStyle;rounded=0;orthogonalLoop=1;jettySize=auto;html=1;" edge="1" parent="FN_kopKCpnc_J7Al5QHP-311" source="FN_kopKCpnc_J7Al5QHP-313" target="FN_kopKCpnc_J7Al5QHP-314">
          <mxGeometry relative="1" as="geometry" />
        </mxCell>
        <mxCell id="FN_kopKCpnc_J7Al5QHP-313" value="&lt;h6 style=&quot;line-height: 90%;&quot;&gt;&lt;span style=&quot;font-size: 8px; font-weight: 400;&quot;&gt;webgis for visualization and interaction with citizens&amp;nbsp;&lt;/span&gt;GeoNext&lt;span style=&quot;background-color: initial; font-size: 12px; font-weight: normal;&quot;&gt;&amp;nbsp;&lt;/span&gt;&lt;font color=&quot;#ff3333&quot; style=&quot;background-color: initial; font-weight: normal; font-size: 8px;&quot;&gt;&lt;a href=&quot;https://usage.geocat.live/catalogue/srv/eng/catalog.search#/metadata/f4fe374e-0a56-4910-9f3a-e8b7519c373e&quot;&gt;Link to tool metadata&lt;/a&gt;&amp;nbsp;&lt;/font&gt;&lt;/h6&gt;&lt;p&gt;&lt;/p&gt;" style="points=[[0.25,0,0],[0.5,0,0],[0.75,0,0],[1,0.25,0],[1,0.5,0],[1,0.75,0],[0.75,1,0],[0.5,1,0],[0.25,1,0],[0,0.75,0],[0,0.5,0],[0,0.25,0]];shape=mxgraph.bpmn.task;whiteSpace=wrap;rectStyle=rounded;size=10;html=1;container=1;expand=0;collapsible=0;taskMarker=abstract;fillColor=#ff9129;" vertex="1" parent="FN_kopKCpnc_J7Al5QHP-311">
          <mxGeometry x="2076" y="40" width="178" height="30" as="geometry" />
        </mxCell>
        <mxCell id="FN_kopKCpnc_J7Al5QHP-314" value="" style="points=[[0.145,0.145,0],[0.5,0,0],[0.855,0.145,0],[1,0.5,0],[0.855,0.855,0],[0.5,1,0],[0.145,0.855,0],[0,0.5,0]];shape=mxgraph.bpmn.event;html=1;verticalLabelPosition=bottom;labelBackgroundColor=#ffffff;verticalAlign=top;align=center;perimeter=ellipsePerimeter;outlineConnect=0;aspect=fixed;outline=end;symbol=terminate2;" vertex="1" parent="FN_kopKCpnc_J7Al5QHP-311">
          <mxGeometry x="2326" y="40" width="30" height="30" as="geometry" />
        </mxCell>
        <mxCell id="FN_kopKCpnc_J7Al5QHP-315" style="edgeStyle=orthogonalEdgeStyle;rounded=0;orthogonalLoop=1;jettySize=auto;html=1;entryX=0;entryY=0.5;entryDx=0;entryDy=0;entryPerimeter=0;" edge="1" parent="FN_kopKCpnc_J7Al5QHP-220" source="FN_kopKCpnc_J7Al5QHP-243" target="FN_kopKCpnc_J7Al5QHP-261">
          <mxGeometry relative="1" as="geometry" />
        </mxCell>
        <mxCell id="FN_kopKCpnc_J7Al5QHP-316" style="edgeStyle=orthogonalEdgeStyle;rounded=0;orthogonalLoop=1;jettySize=auto;html=1;entryX=0.25;entryY=0;entryDx=0;entryDy=0;entryPerimeter=0;dashed=1;" edge="1" parent="FN_kopKCpnc_J7Al5QHP-220" source="FN_kopKCpnc_J7Al5QHP-282" target="FN_kopKCpnc_J7Al5QHP-294">
          <mxGeometry relative="1" as="geometry" />
        </mxCell>
        <mxCell id="FN_kopKCpnc_J7Al5QHP-317" style="edgeStyle=orthogonalEdgeStyle;rounded=0;orthogonalLoop=1;jettySize=auto;html=1;entryX=0.5;entryY=0;entryDx=0;entryDy=0;entryPerimeter=0;" edge="1" parent="FN_kopKCpnc_J7Al5QHP-220" source="FN_kopKCpnc_J7Al5QHP-260" target="FN_kopKCpnc_J7Al5QHP-294">
          <mxGeometry relative="1" as="geometry" />
        </mxCell>
        <mxCell id="FN_kopKCpnc_J7Al5QHP-318" style="edgeStyle=orthogonalEdgeStyle;rounded=0;orthogonalLoop=1;jettySize=auto;html=1;entryX=0.5;entryY=0;entryDx=0;entryDy=0;entryPerimeter=0;" edge="1" parent="FN_kopKCpnc_J7Al5QHP-220" source="FN_kopKCpnc_J7Al5QHP-294" target="FN_kopKCpnc_J7Al5QHP-299">
          <mxGeometry relative="1" as="geometry" />
        </mxCell>
        <mxCell id="FN_kopKCpnc_J7Al5QHP-319" style="edgeStyle=orthogonalEdgeStyle;rounded=0;orthogonalLoop=1;jettySize=auto;html=1;entryX=0.25;entryY=0;entryDx=0;entryDy=0;entryPerimeter=0;dashed=1;" edge="1" parent="FN_kopKCpnc_J7Al5QHP-220" source="FN_kopKCpnc_J7Al5QHP-296" target="FN_kopKCpnc_J7Al5QHP-299">
          <mxGeometry relative="1" as="geometry" />
        </mxCell>
        <mxCell id="FN_kopKCpnc_J7Al5QHP-320" style="edgeStyle=orthogonalEdgeStyle;rounded=0;orthogonalLoop=1;jettySize=auto;html=1;entryX=0.5;entryY=0;entryDx=0;entryDy=0;entryPerimeter=0;" edge="1" parent="FN_kopKCpnc_J7Al5QHP-220" source="FN_kopKCpnc_J7Al5QHP-299" target="FN_kopKCpnc_J7Al5QHP-304">
          <mxGeometry relative="1" as="geometry" />
        </mxCell>
        <mxCell id="FN_kopKCpnc_J7Al5QHP-321" style="edgeStyle=orthogonalEdgeStyle;rounded=0;orthogonalLoop=1;jettySize=auto;html=1;entryX=0.25;entryY=0;entryDx=0;entryDy=0;entryPerimeter=0;dashed=1;" edge="1" parent="FN_kopKCpnc_J7Al5QHP-220" source="FN_kopKCpnc_J7Al5QHP-301" target="FN_kopKCpnc_J7Al5QHP-304">
          <mxGeometry relative="1" as="geometry" />
        </mxCell>
        <mxCell id="FN_kopKCpnc_J7Al5QHP-322" style="edgeStyle=orthogonalEdgeStyle;rounded=0;orthogonalLoop=1;jettySize=auto;html=1;entryX=0;entryY=0.5;entryDx=0;entryDy=0;entryPerimeter=0;dashed=1;exitX=0.5;exitY=1;exitDx=0;exitDy=0;exitPerimeter=0;" edge="1" parent="FN_kopKCpnc_J7Al5QHP-220" source="FN_kopKCpnc_J7Al5QHP-307" target="FN_kopKCpnc_J7Al5QHP-313">
          <mxGeometry relative="1" as="geometry" />
        </mxCell>
        <mxCell id="FN_kopKCpnc_J7Al5QHP-323" style="edgeStyle=orthogonalEdgeStyle;rounded=0;orthogonalLoop=1;jettySize=auto;html=1;entryX=0.5;entryY=0;entryDx=0;entryDy=0;entryPerimeter=0;" edge="1" parent="FN_kopKCpnc_J7Al5QHP-220" source="FN_kopKCpnc_J7Al5QHP-304" target="FN_kopKCpnc_J7Al5QHP-310">
          <mxGeometry relative="1" as="geometry" />
        </mxCell>
        <mxCell id="FN_kopKCpnc_J7Al5QHP-324" style="edgeStyle=orthogonalEdgeStyle;rounded=0;orthogonalLoop=1;jettySize=auto;html=1;entryX=0.5;entryY=0;entryDx=0;entryDy=0;entryPerimeter=0;" edge="1" parent="FN_kopKCpnc_J7Al5QHP-220" source="FN_kopKCpnc_J7Al5QHP-310" target="FN_kopKCpnc_J7Al5QHP-313">
          <mxGeometry relative="1" as="geometry" />
        </mxCell>
        <mxCell id="FN_kopKCpnc_J7Al5QHP-325" style="edgeStyle=orthogonalEdgeStyle;rounded=0;orthogonalLoop=1;jettySize=auto;html=1;entryX=0;entryY=0.5;entryDx=0;entryDy=0;entryPerimeter=0;dashed=1;exitX=0.5;exitY=1;exitDx=0;exitDy=0;exitPerimeter=0;" edge="1" parent="FN_kopKCpnc_J7Al5QHP-220" source="FN_kopKCpnc_J7Al5QHP-301" target="FN_kopKCpnc_J7Al5QHP-310">
          <mxGeometry relative="1" as="geometry" />
        </mxCell>
        <mxCell id="FN_kopKCpnc_J7Al5QHP-326" style="edgeStyle=orthogonalEdgeStyle;rounded=0;orthogonalLoop=1;jettySize=auto;html=1;entryX=0.25;entryY=0;entryDx=0;entryDy=0;entryPerimeter=0;dashed=1;" edge="1" parent="FN_kopKCpnc_J7Al5QHP-220" source="FN_kopKCpnc_J7Al5QHP-307" target="FN_kopKCpnc_J7Al5QHP-310">
          <mxGeometry relative="1" as="geometry" />
        </mxCell>
        <mxCell id="FN_kopKCpnc_J7Al5QHP-327" value="" style="edgeStyle=orthogonalEdgeStyle;rounded=0;orthogonalLoop=1;jettySize=auto;html=1;entryX=0.046;entryY=-0.052;entryDx=0;entryDy=0;entryPerimeter=0;dashed=1;" edge="1" parent="FN_kopKCpnc_J7Al5QHP-220" source="FN_kopKCpnc_J7Al5QHP-250" target="FN_kopKCpnc_J7Al5QHP-263">
          <mxGeometry relative="1" as="geometry">
            <Array as="points">
              <mxPoint x="565" y="870" />
              <mxPoint x="915" y="870" />
            </Array>
          </mxGeometry>
        </mxCell>
      </root>
    </mxGraphModel>
  </diagram>
</mxfile>
